<svg id="Capa_1" data-name="Capa 1" xmlns="http://www.w3.org/2000/svg" viewBox="0 0 469.69 87.01"><title>bistro-salco</title><path d="M159.58,227.12h18.74q16.2,0,16.2,17.75v12.67q0,8.29-6.66,11.73,6.66,3.45,6.66,11.73v12.72q0,17.67-17,17.71h-18Zm12.17,12v24.15h3.82a11.65,11.65,0,0,0,3.48-.35q3.31-1.32,3.31-5.37V244.87q0-5.76-5.29-5.76Zm0,36.18v24.15h5.32q5.3,0,5.29-5.72V281q0-4-3.31-5.32a10.41,10.41,0,0,0-3.48-.39Z" transform="translate(-159.58 -225.79)"/><path d="M204.62,227.12h12.16v84.31H204.62Z" transform="translate(-159.58 -225.79)"/><path d="M227.3,243.49q0-17.7,17.45-17.7t17.49,17.7v11.35H250.08V243.49q0-5.67-5.29-5.71h-.08q-5.25,0-5.25,5.71v7.65q0,5.63,11.39,13.79t11.39,19.47v10.65q0,17.76-17.45,17.75T227.3,295.05V283.71h12.16v11.34c0,3.82,1.78,5.72,5.33,5.72s5.29-1.9,5.29-5.72v-9.62q0-6.1-11.39-14.27T227.3,251.4Z" transform="translate(-159.58 -225.79)"/><path d="M304.05,227.12v12H292.66v72.32H280.5V239.11H269.11v-12Z" transform="translate(-159.58 -225.79)"/><path d="M311.78,227.12h17.7q16.2,0,16.2,17.75v12.67q0,11.13-9.58,14.66l13.66,39.23H336.44l-10.95-37.09-1.55.22v36.87H311.78Zm12.16,12v24.15h2.79a11.65,11.65,0,0,0,3.48-.35q3.32-1.32,3.31-5.37V244.87q0-5.76-5.28-5.76Z" transform="translate(-159.58 -225.79)"/><path d="M390.71,295.05q0,17.71-17.48,17.75t-17.45-17.75V243.49q0-17.7,17.45-17.7t17.48,17.7Zm-12.16-51.56q0-5.67-5.28-5.71h-.09q-5.24,0-5.24,5.71v51.56c0,3.82,1.76,5.72,5.29,5.72s5.32-1.9,5.32-5.72Z" transform="translate(-159.58 -225.79)"/><path d="M422,243.49q0-17.7,17.44-17.7t17.49,17.7v11.35H444.77V243.49q0-5.67-5.29-5.71h-.08c-3.5,0-5.24,1.9-5.24,5.71v7.65q0,5.63,11.38,13.79t11.39,19.47v10.65q0,17.76-17.45,17.75T422,295.05V283.71h12.16v11.34c0,3.82,1.77,5.72,5.32,5.72s5.29-1.9,5.29-5.72v-9.62q0-6.1-11.39-14.27T422,251.4Z" transform="translate(-159.58 -225.79)"/><path d="M501.14,281.52l4,29.91H492.81l-2.37-17.88H478l-2.41,17.88H463.37l4-29.78,8.59-54.53h16.67Zm-12.29,0-4.64-35.06-4.64,35.06Z" transform="translate(-159.58 -225.79)"/><path d="M512.4,311.43V227.12h12.16v72.32h19.38v12Z" transform="translate(-159.58 -225.79)"/><path d="M585.32,295.05q0,17.71-17.49,17.75t-17.44-17.75V243.49q0-17.7,17.44-17.7t17.49,17.7v11.35H573.16V243.49q0-5.67-5.29-5.71h-.08c-3.5,0-5.24,1.9-5.24,5.71v51.56c0,3.82,1.76,5.72,5.28,5.72s5.33-1.9,5.33-5.72V283.71h12.16Z" transform="translate(-159.58 -225.79)"/><path d="M629.28,295.05q0,17.71-17.49,17.75t-17.45-17.75V243.49q0-17.7,17.45-17.7t17.49,17.7Zm-12.16-51.56c0-3.78-1.77-5.68-5.29-5.71h-.08q-5.25,0-5.25,5.71v51.56c0,3.82,1.76,5.72,5.29,5.72s5.33-1.9,5.33-5.72Z" transform="translate(-159.58 -225.79)"/></svg>