<?xml version="1.0" encoding="UTF-8"?>
<svg xmlns="http://www.w3.org/2000/svg" version="1.1" viewBox="0 0 329.15 79">
  <!-- Generator: Adobe Illustrator 28.6.0, SVG Export Plug-In . SVG Version: 1.2.0 Build 709)  -->
  <g>
    <g id="Layer_1">
      <g>
        <path d="M30.01,0H12.89L4.06,49.47,0,76.53h12.58l2.47-16.24h12.75l2.43,16.24h12.62l-4.06-27.14L30.01,0ZM16.64,49.39l4.77-31.86,4.77,31.86h-9.53Z"/>
        <polygon points="74.67 44.4 62.85 0 50.36 0 50.36 76.53 62.36 76.53 62.36 33.54 73.75 76.53 86.24 76.53 86.24 0 74.67 0 74.67 44.4"/>
        <path d="M123.75,0h-17.12l-8.83,49.47-4.06,27.05h12.58l2.47-16.24h12.75l2.43,16.24h12.62l-4.06-27.14L123.75,0ZM110.38,49.39l4.77-31.86,4.77,31.86h-9.53Z"/>
        <path d="M163.34,0h-19.24v76.53h18.45c11.62-.03,17.43-5.38,17.43-16.06v-11.56c0-5-2.28-8.55-6.84-10.64,4.56-2.09,6.84-5.65,6.84-10.68v-11.47c0-10.74-5.55-16.11-16.64-16.11ZM167.49,60.46c0,3.44-1.81,5.16-5.43,5.16h-5.47v-21.89h3.93c1.74,0,2.93.12,3.57.35,2.27.76,3.4,2.37,3.4,4.81v11.56ZM167.49,27.58c0,2.47-1.13,4.1-3.4,4.9-.65.21-1.84.31-3.57.31h-3.93V10.86h5.47c3.62,0,5.43,1.75,5.43,5.25v11.47Z"/>
        <polygon points="190.13 76.53 222.52 76.53 222.52 65.63 202.62 65.63 202.62 43.74 219.74 43.74 219.74 32.79 202.62 32.79 202.62 10.86 222.52 10.86 222.52 0 190.13 0 190.13 76.53"/>
        <polygon points="244.28 0 231.79 0 231.79 76.53 264.19 76.53 264.19 65.63 244.28 65.63 244.28 0"/>
        <polygon points="263.68 12.87 268.32 12.87 266.02 25.82 273.31 25.82 277.54 11.4 277.54 0 263.68 0 263.68 12.87"/>
        <path d="M329.15,26.35v-10.28c0-10.71-5.99-16.06-17.96-16.06s-17.92,5.35-17.92,16.06v7.19c0,7.03,3.9,13,11.7,17.92,7.8,4.94,11.7,9.27,11.7,12.98v8.74c0,3.44-1.81,5.16-5.43,5.16s-5.47-1.72-5.47-5.16v-10.28h-12.49v10.28c0,10.71,5.99,16.08,17.96,16.11,11.95,0,17.92-5.37,17.92-16.11v-9.67c0-6.88-3.9-12.78-11.7-17.7-7.8-4.94-11.7-9.12-11.7-12.53v-6.93c0-3.44,1.79-5.16,5.38-5.16h.09c3.62,0,5.43,1.72,5.43,5.16v10.28h12.49Z"/>
      </g>
    </g>
  </g>
</svg>