<svg id="Capa_1" data-name="Capa 1" xmlns="http://www.w3.org/2000/svg" viewBox="0 0 447.48 87.01"><title>pa-la-porra</title><path d="M159.58,227.12h17.71q16.2,0,16.2,17.75v12.67q0,13.06-11.65,16.85a28,28,0,0,1-8.12.9h-2v36.14H159.58Zm12.17,12v24.15h2.79a11.65,11.65,0,0,0,3.48-.35c2.2-.88,3.31-2.67,3.31-5.37V244.87q0-5.76-5.29-5.76Z" transform="translate(-159.58 -225.79)"/><path d="M232.72,281.52l3.95,29.91H224.38L222,293.55H209.6l-2.41,17.88H195l4-29.78,8.6-54.53h16.67Zm-12.29,0-4.64-35.06-4.64,35.06Z" transform="translate(-159.58 -225.79)"/><path d="M238.3,227.08h15v12.37l-4.59,15.64h-7.91L243.33,241h-5Z" transform="translate(-159.58 -225.79)"/><path d="M286.34,311.43V227.12H298.5v72.32h19.38v12Z" transform="translate(-159.58 -225.79)"/><path d="M359.09,281.52l4,29.91H350.75l-2.36-17.88H336l-2.4,17.88H321.32l3.95-29.78,8.6-54.53h16.67Zm-12.29,0-4.64-35.06-4.64,35.06Z" transform="translate(-159.58 -225.79)"/><path d="M392.17,227.12h17.71q16.2,0,16.2,17.75v12.67q0,13.06-11.65,16.85a28,28,0,0,1-8.12.9h-2v36.14H392.17Zm12.16,12v24.15h2.8a11.65,11.65,0,0,0,3.48-.35c2.2-.88,3.31-2.67,3.31-5.37V244.87q0-5.76-5.29-5.76Z" transform="translate(-159.58 -225.79)"/><path d="M469.17,295.05q0,17.71-17.48,17.75t-17.45-17.75V243.49q0-17.7,17.45-17.7t17.48,17.7ZM457,243.49q0-5.67-5.28-5.71h-.09q-5.24,0-5.24,5.71v51.56c0,3.82,1.76,5.72,5.29,5.72s5.32-1.9,5.32-5.72Z" transform="translate(-159.58 -225.79)"/><path d="M479.49,227.12h17.7q16.2,0,16.2,17.75v12.67q0,11.13-9.58,14.66l13.66,39.23H504.15l-11-37.09-1.54.22v36.87H479.49Zm12.16,12v24.15h2.79a11.65,11.65,0,0,0,3.48-.35q3.31-1.32,3.31-5.37V244.87q0-5.76-5.29-5.76Z" transform="translate(-159.58 -225.79)"/><path d="M524.35,227.12h17.7q16.2,0,16.2,17.75v12.67q0,11.13-9.58,14.66l13.66,39.23H549l-11-37.09-1.54.22v36.87H524.35Zm12.16,12v24.15h2.79a11.65,11.65,0,0,0,3.48-.35q3.32-1.32,3.31-5.37V244.87q0-5.76-5.29-5.76Z" transform="translate(-159.58 -225.79)"/><path d="M603.11,281.52l3.95,29.91H594.77l-2.36-17.88H580l-2.41,17.88H565.34l3.95-29.78,8.6-54.53h16.67Zm-12.29,0-4.64-35.06-4.64,35.06Z" transform="translate(-159.58 -225.79)"/></svg>