<?xml version="1.0" encoding="utf-8"?>
<!-- Generator: Adobe Illustrator 23.0.0, SVG Export Plug-In . SVG Version: 6.00 Build 0)  -->
<svg version="1.1" id="Capa_1" xmlns="http://www.w3.org/2000/svg" xmlns:xlink="http://www.w3.org/1999/xlink" x="0px" y="0px"
	 viewBox="0 0 325.62 80" style="enable-background:new 0 0 325.62 80;" xml:space="preserve">
<g>
	<path d="M35.51,63.19c0,11.02-5.51,16.54-16.53,16.57c-10.99,0-16.49-5.52-16.49-16.57V17.28c0-11.02,5.5-16.53,16.49-16.53
		c11.02,0,16.53,5.51,16.53,16.53v10.86H22.77V17.28c0-2.86-1.25-4.3-3.75-4.32h-0.08c-2.47,0-3.71,1.44-3.71,4.32v45.91
		c0,2.88,1.25,4.32,3.75,4.32c2.52,0,3.79-1.44,3.79-4.32V52.32h12.74V63.19z"/>
	<path d="M76.52,51.06l3.63,27.47H67.3l-2.1-15.91h-9.37l-2.14,15.91H40.87l3.63-27.35l7.77-49.24h16.53L76.52,51.06z M63.55,50.37
		l-3.06-23.18l-3.06,23.18H63.55z"/>
	<path d="M85.89,17.28c0-11.02,5.5-16.53,16.49-16.53c11.02,0,16.53,5.51,16.53,16.53v10.86h-12.74V17.28c0-2.86-1.25-4.3-3.75-4.32
		h-0.08c-2.47,0-3.71,1.44-3.71,4.32v6.81c0,3.11,3.26,7.01,9.79,11.71c6.99,4.97,10.48,10.94,10.48,17.9v9.49
		c0,11.04-5.5,16.57-16.49,16.57c-11.02-0.03-16.53-5.55-16.53-16.57V52.32h12.74v10.86c0,2.88,1.26,4.32,3.79,4.32
		c2.5,0,3.75-1.44,3.75-4.32v-8.57c0-3.39-3.26-7.43-9.79-12.13c-6.99-4.97-10.48-11.03-10.48-18.17V17.28z"/>
	<path d="M160.3,51.06l3.63,27.47h-12.85l-2.1-15.91h-9.37l-2.14,15.91h-12.82l3.63-27.35l7.77-49.24h16.53L160.3,51.06z
		 M147.33,50.37l-3.06-23.18l-3.06,23.18H147.33z"/>
	<path d="M189.88,78.53V1.94h12.74v64.39h17.25v12.2H189.88z"/>
	<path d="M226.56,1.94h12.74v76.59h-12.74V1.94z"/>
	<path d="M281.65,51.06l3.63,27.47h-12.85l-2.1-15.91h-9.37l-2.14,15.91H246l3.63-27.35l7.77-49.24h16.53L281.65,51.06z
		 M268.68,50.37l-3.06-23.18l-3.06,23.18H268.68z"/>
	<path d="M324.04,63.19c0,11.02-5.51,16.54-16.53,16.57c-10.99,0-16.49-5.52-16.49-16.57V17.28c0-11.02,5.5-16.53,16.49-16.53
		c11.02,0,16.53,5.51,16.53,16.53V63.19z M311.3,17.28c0-2.86-1.25-4.3-3.75-4.32h-0.08c-2.47,0-3.71,1.44-3.71,4.32v45.91
		c0,2.88,1.25,4.32,3.75,4.32c2.52,0,3.79-1.44,3.79-4.32V17.28z"/>
</g>
</svg>
