<svg id="Capa_1" data-name="Capa 1" xmlns="http://www.w3.org/2000/svg" viewBox="0 0 522.18 87.67"><title>pizza-del-lago</title><path d="M159.63,226.48h17.83q16.33,0,16.33,17.88v12.77q0,13.17-11.74,17a28.33,28.33,0,0,1-8.18.9h-2v36.42H159.63Zm12.25,12.08v24.33h2.81a11.89,11.89,0,0,0,3.51-.34c2.22-.9,3.33-2.7,3.33-5.42V244.36q0-5.81-5.32-5.8Z" transform="translate(-159.63 -225.14)"/><path d="M203.1,226.48h12.25v85H203.1Z" transform="translate(-159.63 -225.14)"/><path d="M255.09,233.84l-16.62,65.51h17.36v12.08H224.66v-7.36l16.62-65.51H225.22V226.48h29.87Z" transform="translate(-159.63 -225.14)"/><path d="M293.19,233.84l-16.62,65.51h17.36v12.08H262.76v-7.36l16.62-65.51H263.32V226.48h29.87Z" transform="translate(-159.63 -225.14)"/><path d="M337.18,281.29l4,30.14H328.78l-2.38-18H313.89l-2.43,18H299.12l4-30,8.66-54.94h16.79Zm-12.38,0L320.12,246l-4.67,35.33Z" transform="translate(-159.63 -225.14)"/><path d="M370.52,226.48h18.87q16.32,0,16.33,17.88v49.23q0,17.79-17.11,17.84H370.52Zm12.25,12.08v60.79h5.37q5.33,0,5.32-5.76V244.36q0-5.81-5.32-5.8Z" transform="translate(-159.63 -225.14)"/><path d="M416.11,226.48h31.77v12.08H428.36v24.33h16.8V275h-16.8v24.34h19.52v12.08H416.11Z" transform="translate(-159.63 -225.14)"/><path d="M457,311.43v-85h12.25v72.87h19.52v12.08Z" transform="translate(-159.63 -225.14)"/><path d="M518.11,311.43v-85h12.25v72.87h19.53v12.08Z" transform="translate(-159.63 -225.14)"/><path d="M591.41,281.29l4,30.14H583l-2.38-18H568.11l-2.42,18H553.35l4-30L566,226.48h16.8Zm-12.39,0L574.35,246l-4.68,35.33Z" transform="translate(-159.63 -225.14)"/><path d="M637.08,294.93q0,17.83-17.62,17.88t-17.58-17.88V243q0-17.83,17.58-17.84T637.08,243v11.43H624.83V243q0-5.72-5.32-5.76h-.09q-5.28,0-5.28,5.76v52q0,5.76,5.32,5.76t5.37-5.76V275h-6.19V262.89h18.44Z" transform="translate(-159.63 -225.14)"/><path d="M681.81,294.93q0,17.83-17.62,17.88t-17.58-17.88V243q0-17.83,17.58-17.84T681.81,243Zm-12.26-52q0-5.72-5.32-5.76h-.09q-5.28,0-5.28,5.76v52q0,5.76,5.33,5.76t5.36-5.76Z" transform="translate(-159.63 -225.14)"/></svg>