<?xml version="1.0" encoding="utf-8"?>
<!-- Generator: Adobe Illustrator 23.0.0, SVG Export Plug-In . SVG Version: 6.00 Build 0)  -->
<svg version="1.1" id="Capa_1" xmlns="http://www.w3.org/2000/svg" xmlns:xlink="http://www.w3.org/1999/xlink" x="0px" y="0px"
	 viewBox="0 0 578.45 80" style="enable-background:new 0 0 578.45 80;" xml:space="preserve">
<g>
	<path d="M31.51,52.26L44.9,1.48h14.3v76.61H45.25V42.83l-8.52,35.26H26.56l-8.83-35.48v35.48H3.64V1.48h14.3L31.51,52.26z"/>
	<path d="M70.51,1.48h34.09V13.7H84.99v19.96h16.87v12.26H84.99v19.96h19.61v12.22H70.51V1.48z"/>
	<path d="M124.43,1.48l7.17,21.96l7.13-21.96h14.61l-14.43,38.3l14.43,38.3h-14.61l-7.13-24.35l-7.17,24.35h-14.61l14.43-38.3
		l-14.43-38.3H124.43z"/>
	<path d="M160.99,1.48h14.48v76.61h-14.48V1.48z"/>
	<path d="M223.64,62.92c0,11.01-6.26,16.54-18.78,16.57c-12.49,0-18.74-5.52-18.74-16.57V17c0-11.01,6.25-16.52,18.74-16.52
		c12.52,0,18.78,5.51,18.78,16.52v10.87h-14.48V17c0-2.87-1.42-4.32-4.26-4.35h-0.09c-2.81,0-4.22,1.45-4.22,4.35v45.91
		c0,2.87,1.42,4.3,4.26,4.3c2.87,0,4.3-1.43,4.3-4.3V52.05h14.48V62.92z"/>
	<path d="M270.25,50.61l4.13,27.48h-14.61l-2.39-15.91h-10.65l-2.43,15.91h-14.57l4.13-27.35l8.83-49.26h18.78L270.25,50.61z
		 M255.51,49.92l-3.48-23.17l-3.48,23.17H255.51z"/>
	<path d="M281.77,1.48h14.3l9.65,37.74V1.48h13.57v76.61h-14.3l-9.22-36.7v36.7h-14V1.48z"/>
	<path d="M367.21,50.61l4.13,27.48h-14.61l-2.39-15.91h-10.65l-2.43,15.91h-14.57l4.13-27.35l8.83-49.26h18.78L367.21,50.61z
		 M352.47,49.92l-3.48-23.17l-3.48,23.17H352.47z"/>
	<path d="M400.82,1.48h34.09V13.7H415.3v19.96h16.87v12.26H415.3v32.17h-14.48V1.48z"/>
	<path d="M479.82,62.92c0,11.01-6.26,16.54-18.78,16.57c-12.49,0-18.74-5.52-18.74-16.57V17c0-11.01,6.25-16.52,18.74-16.52
		c12.52,0,18.78,5.51,18.78,16.52V62.92z M465.34,17c0-2.87-1.42-4.32-4.26-4.35h-0.09c-2.81,0-4.22,1.45-4.22,4.35v45.91
		c0,2.87,1.42,4.3,4.26,4.3c2.87,0,4.3-1.43,4.3-4.3V17z"/>
	<path d="M526.9,62.92c0,11.01-6.26,16.54-18.78,16.57c-12.49,0-18.74-5.52-18.74-16.57V17c0-11.01,6.25-16.52,18.74-16.52
		c12.52,0,18.78,5.51,18.78,16.52V62.92z M512.43,17c0-2.87-1.42-4.32-4.26-4.35h-0.09c-2.81,0-4.22,1.45-4.22,4.35v45.91
		c0,2.87,1.42,4.3,4.26,4.3c2.87,0,4.3-1.43,4.3-4.3V17z"/>
	<path d="M537.34,1.48h20.04c11.65,0.03,17.48,5.55,17.48,16.57v43.52c0,10.99-6.07,16.49-18.22,16.52h-19.3V1.48z M551.82,13.7
		v52.17h4.3c2.84,0,4.26-1.43,4.26-4.3V18.05c0-2.9-1.42-4.35-4.26-4.35H551.82z"/>
</g>
</svg>
