<?xml version="1.0" encoding="utf-8"?>
<!-- Generator: Adobe Illustrator 25.2.1, SVG Export Plug-In . SVG Version: 6.00 Build 0)  -->
<svg version="1.1" id="Capa_1" xmlns="http://www.w3.org/2000/svg" xmlns:xlink="http://www.w3.org/1999/xlink" x="0px" y="0px"
	 width="432px" height="85px" viewBox="0 0 432 85" style="enable-background:new 0 0 432 85;" xml:space="preserve">
<g>
	<path d="M0.1,1.3h17.3c10.5,0,15.8,5.8,15.8,17.3V31c0,8.5-3.8,14-11.4,16.5c-1.8,0.6-4.5,0.9-7.9,0.9H12v35.3H0.1V1.3z M12,13
		v23.6h2.7c1.7,0,2.8-0.1,3.4-0.3c2.2-0.9,3.2-2.6,3.2-5.2V18.6c0-3.7-1.7-5.6-5.2-5.6H12z"/>
	<path d="M71.5,54.4l3.9,29.2h-12l-2.3-17.5H49l-2.4,17.5h-12l3.9-29.1l8.4-53.3h16.3L71.5,54.4z M59.5,54.4L55,20.2l-4.5,34.3H59.5
		z"/>
	<path d="M82.5,1.3h17.3c10.5,0,15.8,5.8,15.8,17.3V31c0,8.5-3.8,14-11.4,16.5c-1.8,0.6-4.5,0.9-7.9,0.9h-1.9v35.3H82.5V1.3z
		 M94.4,13v23.6h2.7c1.7,0,2.8-0.1,3.4-0.3c2.2-0.9,3.2-2.6,3.2-5.2V18.6c0-3.7-1.7-5.6-5.2-5.6H94.4z"/>
	<path d="M154,54.4l3.9,29.2h-12l-2.3-17.5h-12.1L129,83.6h-12l3.9-29.1l8.4-53.3h16.3L154,54.4z M142,54.4l-4.5-34.3l-4.5,34.3H142
		z"/>
	<path d="M164.1,17.3c0-11.5,5.7-17.3,17-17.3c11.4,0,17.1,5.8,17.1,17.3v11.1h-11.9V17.3c0-3.7-1.7-5.6-5.2-5.6h-0.1
		c-3.4,0-5.1,1.9-5.1,5.6v7.5c0,3.7,3.7,8.2,11.1,13.5c7.4,5.3,11.1,11.6,11.1,19v10.4c0,11.6-5.7,17.3-17,17.3
		c-11.4,0-17.1-5.8-17.1-17.3V56.6H176v11.1c0,3.7,1.7,5.6,5.2,5.6c3.4,0,5.2-1.9,5.2-5.6v-9.4c0-4-3.7-8.6-11.1-13.9
		c-7.4-5.3-11.1-11.7-11.1-19.3V17.3z"/>
	<path d="M229.7,83.6V1.3h11.9v70.6h18.9v11.7H229.7z"/>
	<path d="M300.9,67.7c0,11.5-5.7,17.3-17.1,17.3c-11.4,0-17-5.8-17-17.3V17.3c0-11.5,5.7-17.3,17-17.3c11.4,0,17.1,5.8,17.1,17.3
		V67.7z M289,17.3c0-3.7-1.7-5.6-5.2-5.6h-0.1c-3.4,0-5.1,1.9-5.1,5.6v50.4c0,3.7,1.7,5.6,5.2,5.6c3.5,0,5.2-1.9,5.2-5.6V17.3z"/>
	<path d="M344.3,67.7c0,11.5-5.7,17.3-17.1,17.3c-11.4,0-17-5.8-17-17.3V17.3c0-11.5,5.7-17.3,17-17.3c11.4,0,17.1,5.8,17.1,17.3
		v11.1h-11.9V17.3c0-3.7-1.7-5.6-5.2-5.6h-0.1c-3.4,0-5.1,1.9-5.1,5.6v50.4c0,3.7,1.7,5.6,5.2,5.6c3.5,0,5.2-1.9,5.2-5.6V56.6h11.9
		V67.7z"/>
	<path d="M387,54.4l3.9,29.2h-12l-2.3-17.5h-12.1l-2.4,17.5h-12l3.9-29.1l8.4-53.3h16.3L387,54.4z M375,54.4l-4.5-34.3L366,54.4H375
		z"/>
	<path d="M397.2,17.3c0-11.5,5.7-17.3,17-17.3c11.4,0,17.1,5.8,17.1,17.3v11.1h-11.9V17.3c0-3.7-1.7-5.6-5.2-5.6h-0.1
		c-3.4,0-5.1,1.9-5.1,5.6v7.5c0,3.7,3.7,8.2,11.1,13.5c7.4,5.3,11.1,11.6,11.1,19v10.4c0,11.6-5.7,17.3-17,17.3
		c-11.4,0-17.1-5.8-17.1-17.3V56.6h11.9v11.1c0,3.7,1.7,5.6,5.2,5.6c3.4,0,5.2-1.9,5.2-5.6v-9.4c0-4-3.7-8.6-11.1-13.9
		c-7.4-5.3-11.1-11.7-11.1-19.3V17.3z"/>
</g>
</svg>
