<svg id="Capa_1" data-name="Capa 1" xmlns="http://www.w3.org/2000/svg" viewBox="0 0 377.26 79"><path d="M.67,17.13Q.67,1.07,18.59,1.06t18,16.07V27.41H24.07V17.13c0-3.44-1.81-5.17-5.43-5.17h-.09c-3.59,0-5.39,1.73-5.39,5.17v6.93q0,5.11,11.7,12.53t11.7,17.7V64q0,16.11-17.92,16.11T.67,64V53.67H13.16V64q0,5.17,5.48,5.17T24.07,64V55.22q0-5.56-11.7-13T.67,24.32Z" transform="translate(-0.67 -1.06)"/><path d="M79.5,2.12V13H67.8V78.65H55.31V13H43.62V2.12Z" transform="translate(-0.67 -1.06)"/><path d="M122.26,51.51l4.06,27.14H113.7l-2.43-16.24H98.52L96.05,78.65H83.47L87.53,51.6,96.36,2.12h17.12Zm-12.62,0-4.76-31.87-4.77,31.87Z" transform="translate(-0.67 -1.06)"/><path d="M133.83,2.12H152q16.63,0,16.64,16.11V29.71q0,10.09-9.84,13.32l14,35.62H159.16L147.91,45l-1.59.22V78.65H133.83ZM146.32,13V34.91h2.87a13.51,13.51,0,0,0,3.57-.31,4.72,4.72,0,0,0,3.4-4.89V18.23q0-5.25-5.43-5.25Z" transform="translate(-0.67 -1.06)"/><path d="M205.24,78.65H188.11l-8.82-49.47L175.22,2.12h12.63l8.78,59,8.83-59h12.62L214,29.26Z" transform="translate(-0.67 -1.06)"/><path d="M225.8,2.12h12.49V78.65H225.8Z" transform="translate(-0.67 -1.06)"/><path d="M250,2.12h12.49l11.83,44.4V2.12h11.56V78.65H273.38L262,35.66v43H250Z" transform="translate(-0.67 -1.06)"/><path d="M332.34,64q0,16.06-18,16.11T296.46,64V17.13q0-16.06,17.92-16.07t18,16.07V27.41H319.85V17.13c0-3.44-1.81-5.17-5.43-5.17h-.08c-3.59,0-5.39,1.73-5.39,5.17V64q0,5.17,5.43,5.17T319.85,64V46h-5.43V35.09h17.92Z" transform="translate(-0.67 -1.06)"/><path d="M342.05,17.13q0-16.06,17.92-16.07t18,16.07V27.41H365.44V17.13c0-3.44-1.81-5.17-5.43-5.17h-.08c-3.59,0-5.39,1.73-5.39,5.17v6.93q0,5.11,11.7,12.53t11.69,17.7V64q0,16.11-17.92,16.11T342.05,64V53.67h12.49V64c0,3.45,1.83,5.17,5.47,5.17s5.43-1.72,5.43-5.17V55.22q0-5.56-11.69-13t-11.7-17.92Z" transform="translate(-0.67 -1.06)"/></svg>