<svg id="Capa_1" data-name="Capa 1" xmlns="http://www.w3.org/2000/svg" viewBox="0 0 450.86 87.01"><path d="M.28,85.31V1H12.44V73.32H31.81v12Z" transform="translate(-0.28 0.33)"/><path d="M73,55.4l4,29.91H64.68L62.32,67.43H49.9L47.5,85.31H35.25l4-29.78L47.8,1H64.47Zm-12.29,0L56.09,20.34,51.45,55.4Z" transform="translate(-0.28 0.33)"/><path d="M132.57,58.76,146.71,1h12.16v84.3H147.23V38l-10.4,47.31h-8.25L117.88,38V85.31H106.11V1h12.16Z" transform="translate(-0.28 0.33)"/><path d="M170,1h31.54V13H182.2V37.14h16.67v12H182.2V73.32h19.38v12H170Z" transform="translate(-0.28 0.33)"/><path d="M219,1l7.91,23.71L234.75,1H247L233,43.16l14,42.15H234.75l-7.86-23.72L219,85.31H206.74l14-42.15L206.74,1Z" transform="translate(-0.28 0.33)"/><path d="M254.52,1h12.16v84.3H254.52Z" transform="translate(-0.28 0.33)"/><path d="M312.14,68.94q0,17.7-17.49,17.74T277.21,68.94V17.38q0-17.7,17.44-17.71t17.49,17.71V28.72H300V17.38q0-5.67-5.29-5.72h-.08q-5.25,0-5.25,5.72V68.94c0,3.81,1.77,5.71,5.29,5.71s5.33-1.9,5.33-5.71V57.6h12.16Z" transform="translate(-0.28 0.33)"/><path d="M355.92,55.4l4,29.91H347.59l-2.37-17.88H332.81L330.4,85.31H318.15l4-29.78L330.7,1h16.67Zm-12.29,0L339,20.34,334.35,55.4Z" transform="translate(-0.28 0.33)"/><path d="M367.18,1h12.16L390.85,49.9V1h11.26v84.3H390L378.87,38V85.31H367.18Z" transform="translate(-0.28 0.33)"/><path d="M447.19,55.4l3.95,29.91H438.85l-2.36-17.88H424.07l-2.41,17.88H409.42l3.95-29.78L422,1h16.68Zm-12.29,0-4.64-35.06L425.62,55.4Z" transform="translate(-0.28 0.33)"/></svg>