<svg id="Capa_1" data-name="Capa 1" xmlns="http://www.w3.org/2000/svg" viewBox="0 0 127.96 84.3"><title>bar</title><path d="M159.58,227.12h18.74q16.2,0,16.2,17.75v12.67q0,8.29-6.66,11.73,6.66,3.45,6.66,11.73v12.72q0,17.67-17,17.71h-18Zm12.17,12v24.15h3.82a11.65,11.65,0,0,0,3.48-.35q3.31-1.32,3.31-5.37V244.87q0-5.76-5.29-5.76Zm0,36.18v24.15h5.32q5.3,0,5.29-5.72V281q0-4-3.31-5.32a10.41,10.41,0,0,0-3.48-.39Z" transform="translate(-159.58 -227.12)"/><path d="M238.3,281.52l4,29.91H230l-2.37-17.88H215.19l-2.41,17.88H200.53l4-29.78,8.59-54.53h16.67Zm-12.29,0-4.64-35.06-4.64,35.06Z" transform="translate(-159.58 -227.12)"/><path d="M249.56,227.12h17.7q16.2,0,16.2,17.75v12.67q0,11.13-9.58,14.66l13.67,39.23H274.23l-11-37.09-1.55.22v36.87H249.56Zm12.16,12v24.15h2.79a11.77,11.77,0,0,0,3.49-.35q3.3-1.32,3.3-5.37V244.87q0-5.76-5.28-5.76Z" transform="translate(-159.58 -227.12)"/></svg>