<svg id="Capa_1" data-name="Capa 1" xmlns="http://www.w3.org/2000/svg" viewBox="0 0 427.64 82.07"><title>asado-zelaya</title><path d="M146.73,245.38l-15.56,61.31h16.25V318H118.24v-6.89l15.56-61.32h-15v-11.3h28Z" transform="translate(-118.24 -237.23)"/><path d="M155.93,238.49h29.75v11.3H167.4v22.78h15.73v11.35H167.4v22.77h18.28V318H155.93Z" transform="translate(-118.24 -237.23)"/><path d="M194.19,318V238.49h11.47v68.2h18.28V318Z" transform="translate(-118.24 -237.23)"/><path d="M262.8,289.79,266.53,318H254.94l-2.23-16.86H241L238.73,318H227.18l3.73-28.09,8.1-51.42h15.73Zm-11.59,0-4.37-33.07-4.38,33.07Z" transform="translate(-118.24 -237.23)"/><path d="M280.35,238.49l7.82,31,7.83-31h12.15l-13.9,45.1-.32,1V318H282.46V284.56l-.37-1-13.9-45.1Z" transform="translate(-118.24 -237.23)"/><path d="M341.71,289.79,345.44,318H333.85l-2.23-16.86H319.91L317.64,318H306.09l3.72-28.09,8.11-51.42h15.72Zm-11.59,0-4.38-33.07-4.37,33.07Z" transform="translate(-118.24 -237.23)"/><path d="M405.05,302.56q0,16.69-16.49,16.74t-16.45-16.74V253.93q0-16.69,16.45-16.7t16.49,16.7v10.7H393.58v-10.7q0-5.35-5-5.39h-.08c-3.3,0-4.94,1.79-4.94,5.39v48.63q0,5.38,5,5.39t5-5.39V283.92h-5.79V272.57h17.26Z" transform="translate(-118.24 -237.23)"/><path d="M414.78,238.49h16.7q15.27,0,15.28,16.73v12q0,10.5-9,13.82l12.89,37H438l-10.33-35-1.46.2V318H414.78Zm11.47,11.3v22.78h2.63a10.94,10.94,0,0,0,3.29-.33q3.12-1.25,3.12-5.06v-12q0-5.43-5-5.43Z" transform="translate(-118.24 -237.23)"/><path d="M457.29,238.49h11.47V318H457.29Z" transform="translate(-118.24 -237.23)"/><path d="M479.5,318V238.49H491v68.2h18.28V318Z" transform="translate(-118.24 -237.23)"/><path d="M516.14,318V238.49h11.47v68.2h18.28V318Z" transform="translate(-118.24 -237.23)"/></svg>