<svg id="Capa_1" data-name="Capa 1" xmlns="http://www.w3.org/2000/svg" viewBox="0 0 524.61 93.56"><path d="M20.19,1.86H.05V92.5H19.36q18.26,0,18.25-19V59.79q0-8.91-7.16-12.61,7.15-3.69,7.16-12.61V20.94Q37.61,1.9,20.19,1.86Zm4.35,71.61q0,6.14-5.69,6.14H13.13v-26h4.11a11.56,11.56,0,0,1,3.74.41q3.56,1.39,3.56,5.73Zm0-38.9c0,2.89-1.19,4.82-3.56,5.77a12.52,12.52,0,0,1-3.74.37H13.13v-26h5.72q5.68,0,5.69,6.19Z" transform="translate(-0.05 -0.42)"/><polygon points="61.26 1.43 48.19 1.43 48.19 92.08 82.1 92.08 82.1 79.19 61.26 79.19 61.26 1.43"/><path d="M117.26,1.86H99.34L90.1,60.49l-4.25,32H99l2.59-19.22H115l2.54,19.22h13.22l-4.25-32.15Zm-14,58.49,5-37.7,5,37.7Z" transform="translate(-0.05 -0.42)"/><path d="M156.39.42q-18.75,0-18.75,19V74.9Q137.64,94,156.39,94T175.2,74.9V62.7H162.12V74.9c0,4.1-1.91,6.14-5.73,6.14s-5.68-2-5.68-6.14V19.46q0-6.15,5.64-6.15h.09c3.79,0,5.68,2.08,5.68,6.15v12.2H175.2V19.46Q175.2.42,156.39.42Z" transform="translate(-0.05 -0.42)"/><polygon points="212.75 1.43 198.85 41.77 198.85 1.43 185.77 1.43 185.77 92.08 198.85 92.08 198.85 51.79 212.75 92.08 226.75 92.08 209.47 46.76 226.75 1.43 212.75 1.43"/><path d="M277.16,1.86h-19V92.5H271.2V53.65h2.13a30.21,30.21,0,0,0,8.73-1q12.53-4.07,12.52-18.11V20.94Q294.58,1.9,277.16,1.86Zm4.34,32.71c0,2.89-1.18,4.82-3.55,5.77a12.52,12.52,0,0,1-3.74.37h-3v-26h4.62q5.69,0,5.68,6.19Z" transform="translate(-0.05 -0.42)"/><polygon points="304.23 92.08 338.14 92.08 338.14 79.19 317.31 79.19 317.31 53.22 335.23 53.22 335.23 40.29 317.31 40.29 317.31 14.32 338.14 14.32 338.14 1.43 304.23 1.43 304.23 92.08"/><path d="M366.93,1.86h-19V92.5H361V53.65h2.13a30.26,30.26,0,0,0,8.73-1q12.51-4.07,12.52-18.11V20.94Q384.35,1.9,366.93,1.86Zm4.34,32.71c0,2.89-1.18,4.82-3.55,5.77a12.56,12.56,0,0,1-3.75.37h-3v-26h4.62q5.69,0,5.68,6.19Z" transform="translate(-0.05 -0.42)"/><path d="M413.09,1.86h-19V92.5h13.08V53.65h2.12a30.21,30.21,0,0,0,8.73-1q12.52-4.07,12.52-18.11V20.94Q430.5,1.9,413.09,1.86Zm4.34,32.71c0,2.89-1.19,4.82-3.56,5.77a12.52,12.52,0,0,1-3.74.37h-3v-26h4.62c3.78,0,5.68,2.06,5.68,6.19Z" transform="translate(-0.05 -0.42)"/><polygon points="440.15 92.08 474.06 92.08 474.06 79.19 453.23 79.19 453.23 53.22 471.15 53.22 471.15 40.29 453.23 40.29 453.23 14.32 474.06 14.32 474.06 1.43 440.15 1.43 440.15 92.08"/><path d="M510,50.32q10.31-3.78,10.3-15.75V20.94q0-19-17.42-19.08h-19V92.5h13.07V52.86l1.67-.23L510.34,92.5h14.32ZM507.2,34.57c0,2.89-1.19,4.82-3.56,5.77a12.52,12.52,0,0,1-3.74.37h-3v-26h4.62q5.69,0,5.69,6.19Z" transform="translate(-0.05 -0.42)"/></svg>