<svg id="Capa_1" data-name="Capa 1" xmlns="http://www.w3.org/2000/svg" viewBox="0 0 530.17 84.31"><title>el-mas-pegao</title><path d="M.42,1.28H35V12.87H13.75v23.4H32V48H13.75V71.32H35V83H.42Z" transform="translate(-0.42 -0.15)"/><path d="M44.89,83V1.28H58.22v70H79.46V83Z" transform="translate(-0.42 -0.15)"/><path d="M140.41,57.23,155.9,1.28h13.33V83H156.47V37.12L145.07,83h-9L124.3,37.12V83H111.39V1.28h13.33Z" transform="translate(-0.42 -0.15)"/><path d="M218.64,54,223,83H209.5l-2.59-17.33H193.3L190.66,83H177.24l4.33-28.87L191,1.28h18.28Zm-13.47,0-5.09-34L195,54Z" transform="translate(-0.42 -0.15)"/><path d="M230,17.29Q230,.14,249.16.15t19.17,17.14v11H255v-11q0-5.5-5.79-5.51h-.09c-3.84,0-5.75,1.84-5.75,5.51v7.4q0,5.46,12.48,13.37T268.33,57V67.27q0,17.19-19.12,17.19T230,67.27v-11h13.33v11q0,5.51,5.84,5.51T255,67.27V57.94q0-5.94-12.48-13.85T230,25Z" transform="translate(-0.42 -0.15)"/><path d="M303.56,1.28H323q17.76,0,17.76,17.19V30.72q0,12.66-12.77,16.34a33.46,33.46,0,0,1-8.9.9h-2.17V83H303.56Zm13.33,11.59v23.4H320a14.58,14.58,0,0,0,3.81-.33,5,5,0,0,0,3.63-5.22V18.47c0-3.74-1.93-5.6-5.8-5.6Z" transform="translate(-0.42 -0.15)"/><path d="M350.62,1.28h34.57V12.87H364v23.4h18.27V48H364V71.32h21.24V83H350.62Z" transform="translate(-0.42 -0.15)"/><path d="M432.43,67.27q0,17.15-19.17,17.19T394.14,67.27v-50Q394.14.14,413.26.15t19.17,17.14v11H419.1v-11q0-5.5-5.79-5.51h-.1q-5.74,0-5.74,5.51v50q0,5.51,5.79,5.51t5.84-5.51V48.1h-5.79V36.46h19.12Z" transform="translate(-0.42 -0.15)"/><path d="M480.9,54l4.33,29H471.76l-2.59-17.33H455.56L452.92,83H439.5l4.33-28.87,9.42-52.8h18.28Zm-13.47,0-5.09-34-5.09,34Z" transform="translate(-0.42 -0.15)"/><path d="M530.59,67.27q0,17.15-19.17,17.19T492.3,67.27v-50Q492.3.14,511.42.15t19.17,17.14Zm-13.33-50q0-5.5-5.79-5.51h-.1q-5.75,0-5.74,5.51v50q0,5.51,5.79,5.51t5.84-5.51Z" transform="translate(-0.42 -0.15)"/></svg>