<svg id="Capa_1" data-name="Capa 1" xmlns="http://www.w3.org/2000/svg" viewBox="0 0 941.71 93.6"><path d="M.22,19.53Q.22.49,19,.49t18.81,19V31.72H24.71V19.53q0-6.1-5.68-6.15h-.09q-5.64,0-5.64,6.15v8.22q0,6.06,12.24,14.83T37.79,63.51V75q0,19.08-18.76,19.08T.22,75V62.77H13.3V75q0,6.14,5.73,6.14T24.71,75V64.62q0-6.57-12.24-15.34T.22,28Z" transform="translate(-0.22 -0.45)"/><path d="M85.33,60.41l4.25,32.16H76.36L73.82,73.35H60.47L57.88,92.57H44.72l4.25-32L58.21,1.92H76.13Zm-13.22,0-5-37.7-5,37.7Z" transform="translate(-0.22 -0.45)"/><path d="M97.43,92.57V1.92h13.08V79.68h20.83V92.57Z" transform="translate(-0.22 -0.45)"/><path d="M175.83,75q0,19-18.8,19.08T138.27,75V19.53q0-19,18.76-19t18.8,19V31.72H162.76V19.53c0-4.07-1.9-6.12-5.68-6.15H157q-5.62,0-5.63,6.15V75q0,6.14,5.68,6.14T162.76,75V62.77h13.07Z" transform="translate(-0.22 -0.45)"/><path d="M223.1,75q0,19-18.81,19.08T185.54,75V19.53q0-19,18.75-19t18.81,19ZM210,19.53q0-6.1-5.68-6.15h-.09q-5.64,0-5.64,6.15V75q0,6.14,5.68,6.14T210,75Z" transform="translate(-0.22 -0.45)"/><path d="M257.65,1.92H277.8Q295.22,2,295.22,21V73.53q0,19-18.25,19H257.65Zm13.08,12.89V79.68h5.73q5.69,0,5.68-6.15V21c0-4.12-1.89-6.19-5.68-6.19Z" transform="translate(-0.22 -0.45)"/><path d="M306.3,1.92h33.92V14.81H319.38v26H337.3V53.72H319.38v26h20.84V92.57H306.3Z" transform="translate(-0.22 -0.45)"/><path d="M349,19.53q0-19,18.76-19t18.8,19V31.72H373.48V19.53q0-6.1-5.68-6.15h-.1q-5.62,0-5.63,6.15v8.22q0,6.06,12.24,14.83t12.24,20.93V75q0,19.08-18.75,19.08T349,75V62.77h13.08V75q0,6.14,5.73,6.14T373.48,75V64.62q0-6.57-12.24-15.34T349,28Z" transform="translate(-0.22 -0.45)"/><path d="M396.72,19.53q0-19,18.76-19t18.8,19V31.72H421.2V19.53q0-6.1-5.68-6.15h-.09q-5.64,0-5.64,6.15v8.22q0,6.06,12.25,14.83t12.24,20.93V75q0,19.08-18.76,19.08T396.72,75V62.77h13.07V75q0,6.14,5.73,6.14T421.2,75V64.62q0-6.57-12.24-15.34T396.72,28Z" transform="translate(-0.22 -0.45)"/><path d="M445.37,1.92h33.91V14.81H458.44v26h17.93V53.72H458.44v26h20.84V92.57H445.37Z" transform="translate(-0.22 -0.45)"/><path d="M489,1.92h19Q525.43,2,525.43,21V34.63q0,12-10.3,15.76l14.69,42.18H515.5L503.72,52.7l-1.66.23V92.57H489Zm13.08,12.89v26h3a12.48,12.48,0,0,0,3.74-.37c2.37-1,3.56-2.88,3.56-5.78V21c0-4.12-1.9-6.19-5.68-6.19Z" transform="translate(-0.22 -0.45)"/><path d="M570,1.92V14.81H557.77V92.57H544.7V14.81H532.46V1.92Z" transform="translate(-0.22 -0.45)"/><path d="M577.41,19.53q0-19,18.76-19t18.8,19V31.72H601.89V19.53q0-6.1-5.68-6.15h-.09q-5.64,0-5.64,6.15v8.22q0,6.06,12.25,14.83T615,63.51V75q0,19.08-18.76,19.08T577.41,75V62.77h13.07V75q0,6.14,5.73,6.14T601.89,75V64.62q0-6.57-12.24-15.34T577.41,28Z" transform="translate(-0.22 -0.45)"/><path d="M673.55,39.35V33.16h13.08v6.19h8.31V52.24h-8.31V73.49q0,19-19,19-18.61,0-18.61-19V58.38q0-8.91,7.16-12.61-7.17-3.71-7.16-12.61V19.53Q649.07.45,667.78.45t18.85,19.08v3.88H673.55V19.53q0-5.55-5.59-6.24-5.82.56-5.82,6.24V33.16c0,2.89,1.19,4.82,3.56,5.77a9.13,9.13,0,0,0,3,.42Zm-5.82,40.33q5.82,0,5.82-6.19V52.24H668.7a9.47,9.47,0,0,0-3,.41q-3.56,1.4-3.56,5.73V73.49q0,6.2,5.36,6.19Z" transform="translate(-0.22 -0.45)"/><path d="M764.29,75q0,19-18.8,19.08T726.73,75V19.53q0-19,18.76-19t18.8,19V31.72H751.22V19.53q0-6.1-5.69-6.15h-.09q-5.64,0-5.64,6.15V75q0,6.14,5.69,6.14T751.22,75V62.77h13.07Z" transform="translate(-0.22 -0.45)"/><path d="M811.55,75q0,19-18.8,19.08T774,75V19.53q0-19,18.76-19t18.8,19ZM798.48,19.53c0-4.07-1.9-6.12-5.68-6.15h-.1q-5.62,0-5.63,6.15V75q0,6.14,5.68,6.14T798.48,75Z" transform="translate(-0.22 -0.45)"/><path d="M822.64,1.92h33.91V14.81H835.72v26h17.92V53.72H835.72V92.57H822.64Z" transform="translate(-0.22 -0.45)"/><path d="M865.33,1.92h33.91V14.81H878.41v26h17.92V53.72H878.41V92.57H865.33Z" transform="translate(-0.22 -0.45)"/><path d="M908,1.92h33.91V14.81H921.1v26H939V53.72H921.1v26h20.83V92.57H908Z" transform="translate(-0.22 -0.45)"/></svg>