<?xml version="1.0" encoding="utf-8"?>
<!-- Generator: Adobe Illustrator 25.2.1, SVG Export Plug-In . SVG Version: 6.00 Build 0)  -->
<svg version="1.1" id="Capa_1" xmlns="http://www.w3.org/2000/svg" xmlns:xlink="http://www.w3.org/1999/xlink" x="0px" y="0px"
	 width="258px" height="85px" viewBox="0 0 258 85" style="enable-background:new 0 0 258 85;" xml:space="preserve">
<g>
	<path d="M0.3,17.2C0.3,5.7,6-0.1,17.4-0.1c11.4,0,17.1,5.8,17.1,17.3v11.1H22.6V17.2c0-3.7-1.7-5.6-5.2-5.6h-0.1
		c-3.4,0-5.1,1.9-5.1,5.6v7.5c0,3.7,3.7,8.2,11.1,13.5c7.4,5.3,11.1,11.6,11.1,19v10.4c0,11.6-5.7,17.3-17,17.3
		C6,84.9,0.3,79.1,0.3,67.6V56.5h11.9v11.1c0,3.7,1.7,5.6,5.2,5.6c3.4,0,5.2-1.9,5.2-5.6v-9.4c0-4-3.7-8.6-11.1-13.9
		C4.1,39,0.3,32.5,0.3,24.9V17.2z"/>
	<path d="M77.7,54.4l3.9,29.2h-12l-2.3-17.5H55.1l-2.4,17.5h-12l3.9-29.1L53,1.2h16.3L77.7,54.4z M65.7,54.4l-4.5-34.3l-4.5,34.3
		H65.7z"/>
	<path d="M110.2,42.4l15.7,41.2h-12.7L100.5,47v36.6H88.7V1.2h11.9v36.6l12.6-36.6h12.7L110.2,42.4z"/>
	<path d="M166.7,67.6c0,11.5-5.7,17.3-17.1,17.3c-11.4,0-17-5.8-17-17.3V1.2h11.9v66.4c0,3.7,1.7,5.6,5.2,5.6c3.5,0,5.2-1.9,5.2-5.6
		V1.2h11.9V67.6z"/>
	<path d="M177.2,1.2h17.3c10.5,0,15.8,5.8,15.8,17.3v12.4c0,7.2-3.1,12-9.4,14.3l13.3,38.3h-13l-10.7-36.2l-1.5,0.2v36h-11.9V1.2z
		 M189.1,12.9v23.6h2.7c1.7,0,2.8-0.1,3.4-0.3c2.2-0.9,3.2-2.6,3.2-5.2V18.6c0-3.7-1.7-5.6-5.2-5.6H189.1z"/>
	<path d="M254.2,54.4l3.9,29.2h-12l-2.3-17.5h-12.1l-2.4,17.5h-12l3.9-29.1l8.4-53.3h16.3L254.2,54.4z M242.2,54.4l-4.5-34.3
		l-4.5,34.3H242.2z"/>
</g>
</svg>
