<?xml version="1.0" encoding="UTF-8"?>
<svg id="Layer_1" data-name="Layer 1" xmlns="http://www.w3.org/2000/svg" viewBox="0 0 500 93">
  <defs>
    <style>
      .cls-1 {
        fill: #000;
        stroke-width: 0px;
      }
    </style>
  </defs>
  <path class="cls-1" d="M37.12,74.03c0,12.61-6.19,18.94-18.58,18.97-12.36,0-18.54-6.32-18.54-18.97V18.92C0,6.31,6.18,0,18.54,0s18.58,6.31,18.58,18.92v12.12h-12.92v-12.12c0-4.04-1.87-6.08-5.62-6.11h-.09c-3.71,0-5.57,2.04-5.57,6.11v55.11c0,4.07,1.87,6.11,5.62,6.11s5.66-2.04,5.66-6.11v-21.13h-5.62v-12.86h18.54v33.99Z"/>
  <path class="cls-1" d="M84.09,59.57l4.2,31.96h-13.06l-2.51-19.11h-13.19l-2.56,19.11h-13.01l4.2-31.83L57.3,1.42h17.71l9.09,58.14ZM71.04,59.57l-4.93-37.48-4.93,37.48h9.86Z"/>
  <path class="cls-1" d="M96.06,1.42h18.81c11.47.03,17.21,6.35,17.21,18.97v13.55c0,7.93-3.39,13.15-10.18,15.66l14.52,41.93h-14.15l-11.64-39.63-1.64.23v39.4h-12.92V1.42ZM108.98,14.24v25.81h2.97c1.8,0,3.03-.12,3.7-.37,2.34-.95,3.52-2.86,3.52-5.74v-13.55c0-4.1-1.87-6.15-5.62-6.15h-4.57Z"/>
  <path class="cls-1" d="M179.74,59.57l4.2,31.96h-13.06l-2.51-19.11h-13.19l-2.56,19.11h-13.01l4.2-31.83L152.94,1.42h17.71l9.09,58.14ZM166.68,59.57l-4.93-37.48-4.93,37.48h9.86Z"/>
  <path class="cls-1" d="M227.9,74.03c0,12.61-6.19,18.94-18.58,18.97-12.36,0-18.54-6.32-18.54-18.97V18.92c0-12.61,6.18-18.92,18.54-18.92s18.58,6.31,18.58,18.92v12.12h-12.92v-12.12c0-4.04-1.87-6.08-5.62-6.11h-.09c-3.71,0-5.57,2.04-5.57,6.11v55.11c0,4.07,1.87,6.11,5.62,6.11s5.66-2.04,5.66-6.11v-21.13h-5.62v-12.86h18.54v33.99Z"/>
  <path class="cls-1" d="M238.86,1.42h33.51v12.81h-20.59v25.81h17.71v12.86h-17.71v25.81h20.59v12.81h-33.51V1.42Z"/>
  <path class="cls-1" d="M341.35,74.03c0,12.61-6.19,18.94-18.58,18.97-12.36,0-18.54-6.32-18.54-18.97V18.92c0-12.61,6.18-18.92,18.54-18.92s18.58,6.31,18.58,18.92v12.12h-12.92v-12.12c0-4.04-1.87-6.08-5.62-6.11h-.09c-3.71,0-5.57,2.04-5.57,6.11v55.11c0,4.07,1.87,6.11,5.62,6.11s5.66-2.04,5.66-6.11v-21.13h-5.62v-12.86h18.54v33.99Z"/>
  <path class="cls-1" d="M352.31,1.42h18.81c11.47.03,17.21,6.35,17.21,18.97v13.55c0,7.93-3.39,13.15-10.18,15.66l14.52,41.93h-14.15l-11.64-39.63-1.64.23v39.4h-12.92V1.42ZM365.23,14.24v25.81h2.97c1.8,0,3.03-.12,3.7-.37,2.34-.95,3.51-2.86,3.51-5.74v-13.55c0-4.1-1.87-6.15-5.61-6.15h-4.57Z"/>
  <path class="cls-1" d="M400.2,1.42h12.92v90.11h-12.92V1.42Z"/>
  <path class="cls-1" d="M425.22,91.53V1.42h12.92v77.29h20.59v12.81h-33.51Z"/>
  <path class="cls-1" d="M466.49,91.53V1.42h12.92v77.29h20.59v12.81h-33.51Z"/>
</svg>