<svg id="Capa_1" data-name="Capa 1" xmlns="http://www.w3.org/2000/svg" viewBox="0 0 512.31 87.01"><path d="M-.15.86H18.58q16.2,0,16.2,17.75V31.29q0,8.28-6.66,11.73,6.66,3.43,6.66,11.73V67.47q0,17.66-17,17.7h-18ZM12,12.85V37h3.82a11.74,11.74,0,0,0,3.48-.34q3.32-1.33,3.31-5.37V18.61q0-5.76-5.29-5.76ZM12,49V73.18h5.32c3.53,0,5.29-1.91,5.29-5.71V54.75c0-2.7-1.1-4.47-3.31-5.33A10.41,10.41,0,0,0,15.83,49Z" transform="translate(0.15 0.47)"/><path d="M44.88.86H57V85.17H44.88Z" transform="translate(0.15 0.47)"/><path d="M67.56,17.24Q67.56-.47,85-.47T102.5,17.24V28.58H90.34V17.24c0-3.79-1.76-5.69-5.29-5.72H85q-5.25,0-5.25,5.72v7.64q0,5.64,11.39,13.8T102.5,58.14V68.8q0,17.74-17.45,17.74T67.56,68.8V57.45H79.72V68.8q0,5.72,5.33,5.71t5.29-5.71V59.17q0-6.09-11.39-14.26T67.56,25.14Z" transform="translate(0.15 0.47)"/><path d="M144.31.86v12H132.92V85.17H120.76V12.85H109.37V.86Z" transform="translate(0.15 0.47)"/><path d="M152,.86h17.7q16.2,0,16.2,17.75V31.29q0,11.13-9.58,14.65L190,85.17H176.7L165.75,48.09l-1.55.21V85.17H152Zm12.16,12V37H167a11.74,11.74,0,0,0,3.48-.34q3.32-1.33,3.31-5.37V18.61q0-5.76-5.28-5.76Z" transform="translate(0.15 0.47)"/><path d="M231,68.8q0,17.7-17.49,17.74T196,68.8V17.24Q196-.47,213.48-.47T231,17.24ZM218.81,17.24c0-3.79-1.76-5.69-5.28-5.72h-.09q-5.24,0-5.24,5.72V68.8q0,5.72,5.28,5.71t5.33-5.71Z" transform="translate(0.15 0.47)"/><path d="M297,55.26l4,29.91H288.68l-2.37-17.88H273.9l-2.41,17.88H259.24l4-29.78L271.79.86h16.67Zm-12.29,0L280.08,20.2l-4.64,35.06Z" transform="translate(0.15 0.47)"/><path d="M308.27.86H326q16.2,0,16.2,17.75V31.29q0,11.13-9.58,14.65l13.66,39.23H332.93L322,48.09l-1.55.21V85.17H308.27Zm12.16,12V37h2.79a11.74,11.74,0,0,0,3.48-.34Q330,35.33,330,31.29V18.61q0-5.76-5.28-5.76Z" transform="translate(0.15 0.47)"/><path d="M353.13.86h31.54v12H365.29V37H382V49H365.29V73.18h19.38v12H353.13Z" transform="translate(0.15 0.47)"/><path d="M393.69.86h17.7q16.2,0,16.2,17.75V31.29q0,13.05-11.64,16.84a28,28,0,0,1-8.12.9h-2V85.17H393.69Zm12.16,12V37h2.79a11.74,11.74,0,0,0,3.48-.34q3.31-1.33,3.31-5.37V18.61q0-5.76-5.28-5.76Z" transform="translate(0.15 0.47)"/><path d="M466.82,55.26l4,29.91H458.49l-2.37-17.88H443.71L441.3,85.17H429.05l4-29.78L441.6.86h16.67Zm-12.29,0L449.89,20.2l-4.64,35.06Z" transform="translate(0.15 0.47)"/><path d="M477.22,17.24q0-17.71,17.45-17.71t17.48,17.71V28.58H500V17.24c0-3.79-1.76-5.69-5.28-5.72h-.09q-5.24,0-5.24,5.72v7.64q0,5.64,11.39,13.8t11.38,19.46V68.8q0,17.74-17.44,17.74T477.22,68.8V57.45h12.16V68.8q0,5.72,5.33,5.71T500,68.8V59.17q0-6.09-11.38-14.26T477.22,25.14Z" transform="translate(0.15 0.47)"/></svg>