<svg id="Capa_1" data-name="Capa 1" xmlns="http://www.w3.org/2000/svg" viewBox="0 0 449.11 80"><path d="M16.41-.3Q.36-.3.37,16v7.27Q.37,34,10.84,41.41T21.31,54.53v8.85q0,5.25-4.86,5.25t-4.9-5.25V53H.37V63.38q0,16.27,16.08,16.32t16-16.32v-9.8q0-10.42-10.47-17.89T11.55,23V16c0-3.5,1.6-5.25,4.82-5.25h.08c3.24,0,4.86,1.78,4.86,5.25V26.4H32.49V16Q32.49-.31,16.41-.3Z" transform="translate(-0.37 0.3)"/><path d="M65.28.92H50l-7.9,50.13L38.41,78.43H49.67L51.88,62H63.3l2.17,16.43h11.3l-3.63-27.5Zm-12,50L57.57,18.7l4.27,32.23Z" transform="translate(-0.37 0.3)"/><polygon points="94.3 1.23 83.12 1.23 83.12 78.74 112.12 78.74 112.12 67.71 94.3 67.71 94.3 1.23"/><path d="M134.45-.3q-16,0-16,16.27V63.38q0,16.32,16,16.32t16.08-16.32V53H139.35V63.38q0,5.25-4.9,5.25t-4.86-5.25V16q0-5.25,4.82-5.25h.08c3.24,0,4.86,1.78,4.86,5.25V26.4h11.18V16Q150.53-.31,134.45-.3Z" transform="translate(-0.37 0.3)"/><path d="M174.87-.3q-16.05,0-16,16.27V63.38q0,16.32,16,16.32T191,63.38V16Q191-.31,174.87-.3Zm4.89,63.68q0,5.25-4.89,5.25T170,63.38V16c0-3.5,1.6-5.25,4.82-5.25h.08c3.24,0,4.85,1.78,4.85,5.25Z" transform="translate(-0.37 0.3)"/><path d="M243.8.92H228.48l-7.91,50.13-3.63,27.38H228.2L230.41,62h11.42L244,78.43h11.3l-3.63-27.5Zm-12,50L236.1,18.7l4.27,32.23Z" transform="translate(-0.37 0.3)"/><path d="M293.19,28.89V17.24Q293.19,1,278.29.92H262V78.43H273.2V44.53l1.42-.19,10.07,34.09h12.25L284.38,42.36Q293.19,39.12,293.19,28.89Zm-11.18,0c0,2.48-1,4.12-3.05,4.94a10.81,10.81,0,0,1-3.2.31H273.2V11.94h3.95q4.86,0,4.86,5.3Z" transform="translate(-0.37 0.3)"/><polygon points="302.89 78.74 331.89 78.74 331.89 67.71 314.07 67.71 314.07 45.51 329.4 45.51 329.4 34.45 314.07 34.45 314.07 12.25 331.89 12.25 331.89 1.23 302.89 1.23 302.89 78.74"/><path d="M356.83.92H340.56V78.43h11.18V45.21h1.81a25.75,25.75,0,0,0,7.47-.83q10.71-3.48,10.71-15.49V17.24Q371.73,1,356.83.92Zm3.72,28c0,2.48-1,4.12-3.05,4.94a10.85,10.85,0,0,1-3.2.31h-2.56V11.94h3.95q4.86,0,4.86,5.3Z" transform="translate(-0.37 0.3)"/><path d="M399.93.92H384.6l-7.9,50.13-3.63,27.38h11.26L386.54,62H398l2.17,16.43h11.3l-3.64-27.5Zm-12,50,4.27-32.23,4.27,32.23Z" transform="translate(-0.37 0.3)"/><path d="M449.47,26.4V16q0-16.28-16.08-16.27T417.36,16v7.27q0,10.71,10.46,18.17t10.47,13.12v8.85q0,5.25-4.86,5.25t-4.89-5.25V53H417.36V63.38q0,16.27,16.07,16.32t16-16.32v-9.8q0-10.42-10.47-17.89T428.54,23V16c0-3.5,1.6-5.25,4.82-5.25h.07c3.24,0,4.86,1.78,4.86,5.25V26.4Z" transform="translate(-0.37 0.3)"/></svg>