<svg id="Capa_1" data-name="Capa 1" xmlns="http://www.w3.org/2000/svg" viewBox="0 0 521.73 87.01"><title>vita-mexicana</title><path d="M184.94,311.43H168.26l-8.59-54.49-3.95-29.82H168l8.55,65,8.59-65h12.29L193.49,257Z" transform="translate(-155.72 -225.79)"/><path d="M205,227.12h12.16v84.31H205Z" transform="translate(-155.72 -225.79)"/><path d="M260,227.12v12H248.62v72.32H236.46V239.11H225.07v-12Z" transform="translate(-155.72 -225.79)"/><path d="M299.32,281.52l3.95,29.91H291l-2.36-17.88H276.2l-2.4,17.88H261.55l3.95-29.78,8.6-54.53h16.67Zm-12.29,0-4.64-35.06-4.64,35.06Z" transform="translate(-155.72 -225.79)"/><path d="M358.87,284.87,373,227.12h12.16v84.31H373.53V264.12l-10.4,47.31h-8.25l-10.7-47.31v47.31H332.41V227.12h12.16Z" transform="translate(-155.72 -225.79)"/><path d="M396.34,227.12h31.54v12H408.5v24.15h16.67v12H408.5v24.15h19.38v12H396.34Z" transform="translate(-155.72 -225.79)"/><path d="M445.28,227.12l7.91,23.72,7.86-23.72H473.3l-14,42.15,14,42.16H461.05l-7.86-23.72-7.91,23.72H433l14-42.16-14-42.15Z" transform="translate(-155.72 -225.79)"/><path d="M480.82,227.12H493v84.31H480.82Z" transform="translate(-155.72 -225.79)"/><path d="M538.44,295.05q0,17.71-17.49,17.75t-17.44-17.75V243.49q0-17.7,17.44-17.7t17.49,17.7v11.35H526.28V243.49q0-5.67-5.28-5.71h-.09c-3.5,0-5.24,1.9-5.24,5.71v51.56c0,3.82,1.76,5.72,5.28,5.72s5.33-1.9,5.33-5.72V283.71h12.16Z" transform="translate(-155.72 -225.79)"/><path d="M582.23,281.52l3.95,29.91H573.89l-2.36-17.88H559.11l-2.41,17.88H544.46l3.95-29.78L557,227.12h16.67Zm-12.29,0-4.64-35.06-4.64,35.06Z" transform="translate(-155.72 -225.79)"/><path d="M593.48,227.12h12.16L617.16,276v-48.9h11.26v84.31H616.26l-11.09-47.36v47.36H593.48Z" transform="translate(-155.72 -225.79)"/><path d="M673.49,281.52l4,29.91H665.16l-2.37-17.88H650.37L648,311.43H635.72l3.95-29.78,8.6-54.53h16.67Zm-12.29,0-4.64-35.06-4.64,35.06Z" transform="translate(-155.72 -225.79)"/></svg>