<svg id="Capa_1" data-name="Capa 1" xmlns="http://www.w3.org/2000/svg" viewBox="0 0 177.71 79.51"><title>biave</title><path d="M120.27,238.49h17.67q15.27,0,15.28,16.73v12q0,7.81-6.28,11.06,6.27,3.24,6.28,11.07v12q0,16.67-16,16.7H120.27Zm11.47,11.3v22.78h3.6a10.94,10.94,0,0,0,3.29-.33q3.12-1.25,3.12-5.06v-12q0-5.43-5-5.43Zm0,34.13v22.77h5c3.33,0,5-1.79,5-5.39v-12q0-3.81-3.12-5a10.08,10.08,0,0,0-3.29-.36Z" transform="translate(-120.27 -238.49)"/><path d="M162.74,238.49h11.47V318H162.74Z" transform="translate(-120.27 -238.49)"/><path d="M216.93,289.79,220.65,318H209.06l-2.23-16.86H195.12L192.85,318H181.3L185,289.91l8.11-51.42h15.72Zm-11.59,0L201,256.72l-4.38,33.07Z" transform="translate(-120.27 -238.49)"/><path d="M249.55,318H233.83l-8.11-51.39L222,238.49h11.59l8.07,61.27,8.1-61.27h11.59l-3.72,28.2Z" transform="translate(-120.27 -238.49)"/><path d="M268.23,238.49H298v11.3H279.7v22.78h15.73v11.35H279.7v22.77H298V318H268.23Z" transform="translate(-120.27 -238.49)"/></svg>