<svg id="Capa_1" data-name="Capa 1" xmlns="http://www.w3.org/2000/svg" viewBox="0 0 194.3 84.3"><title>viabe</title><path d="M184.94,311.43H168.26l-8.59-54.49-3.95-29.82H168l8.55,65,8.59-65h12.29L193.49,257Z" transform="translate(-155.72 -227.12)"/><path d="M205,227.12h12.16v84.31H205Z" transform="translate(-155.72 -227.12)"/><path d="M262.41,281.52l3.95,29.91H254.07l-2.36-17.88H239.29l-2.4,17.88H224.64l4-29.78,8.6-54.53h16.67Zm-12.29,0-4.64-35.06-4.64,35.06Z" transform="translate(-155.72 -227.12)"/><path d="M273.67,227.12H292.4q16.2,0,16.2,17.75v12.67q0,8.29-6.66,11.73,6.66,3.45,6.66,11.73v12.72q0,17.67-17,17.71h-18Zm12.16,12v24.15h3.82a11.65,11.65,0,0,0,3.48-.35q3.31-1.32,3.31-5.37V244.87q0-5.76-5.28-5.76Zm0,36.18v24.15h5.33q5.28,0,5.28-5.72V281q0-4-3.31-5.32a10.41,10.41,0,0,0-3.48-.39Z" transform="translate(-155.72 -227.12)"/><path d="M318.48,227.12H350v12H330.64v24.15h16.68v12H330.64v24.15H350v12H318.48Z" transform="translate(-155.72 -227.12)"/></svg>