<svg id="Capa_1" data-name="Capa 1" xmlns="http://www.w3.org/2000/svg" viewBox="0 0 1024.55 87.01"><title>viabe</title><path d="M184.94,311.43H168.26l-8.59-54.49-3.95-29.82H168l8.55,65,8.59-65h12.29L193.49,257Z" transform="translate(-155.72 -225.79)"/><path d="M205,227.12h12.16v84.31H205Z" transform="translate(-155.72 -225.79)"/><path d="M262.41,281.52l3.95,29.91H254.07l-2.36-17.88H239.29l-2.4,17.88H224.64l4-29.78,8.6-54.53h16.67Zm-12.29,0-4.64-35.06-4.64,35.06Z" transform="translate(-155.72 -225.79)"/><path d="M273.67,227.12H292.4q16.2,0,16.2,17.75v12.67q0,8.29-6.66,11.73,6.66,3.45,6.66,11.73v12.72q0,17.67-17,17.71h-18Zm12.16,12v24.15h3.82a11.65,11.65,0,0,0,3.48-.35q3.31-1.32,3.31-5.37V244.87q0-5.76-5.28-5.76Zm0,36.18v24.15h5.33q5.28,0,5.28-5.72V281q0-4-3.31-5.32a10.41,10.41,0,0,0-3.48-.39Z" transform="translate(-155.72 -225.79)"/><path d="M318.48,227.12H350v12H330.64v24.15h16.68v12H330.64v24.15H350v12H318.48Z" transform="translate(-155.72 -225.79)"/><path d="M377.44,275.29v-10h29.47v10Z" transform="translate(-155.72 -225.79)"/><path d="M470.55,295.05q0,17.71-17.49,17.75t-17.44-17.75V243.49q0-17.7,17.44-17.7t17.49,17.7v11.35H458.39V243.49q0-5.67-5.29-5.71H453c-3.5,0-5.24,1.9-5.24,5.71v51.56c0,3.82,1.76,5.72,5.28,5.72s5.33-1.9,5.33-5.72V283.71h12.16Z" transform="translate(-155.72 -225.79)"/><path d="M514.51,295.05q0,17.71-17.49,17.75t-17.45-17.75V243.49q0-17.7,17.45-17.7t17.49,17.7Zm-12.16-51.56c0-3.78-1.77-5.68-5.29-5.71H497q-5.25,0-5.25,5.71v51.56c0,3.82,1.77,5.72,5.29,5.72s5.33-1.9,5.33-5.72Z" transform="translate(-155.72 -225.79)"/><path d="M524.82,311.43V227.12H537v72.32h19.38v12Z" transform="translate(-155.72 -225.79)"/><path d="M597.74,295.05q0,17.71-17.49,17.75T562.8,295.05V243.49q0-17.7,17.45-17.7t17.49,17.7Zm-12.16-51.56q0-5.67-5.29-5.71h-.08q-5.25,0-5.25,5.71v51.56c0,3.82,1.77,5.72,5.29,5.72s5.33-1.9,5.33-5.72Z" transform="translate(-155.72 -225.79)"/><path d="M634.52,284.87l14.14-57.75h12.16v84.31H649.17V264.12l-10.4,47.31h-8.25l-10.7-47.31v47.31H608.05V227.12h12.16Z" transform="translate(-155.72 -225.79)"/><path d="M672,227.12h18.73q16.2,0,16.2,17.75v12.67q0,8.29-6.66,11.73,6.66,3.45,6.66,11.73v12.72q0,17.67-17,17.71H672Zm12.16,12v24.15H688a11.65,11.65,0,0,0,3.48-.35q3.31-1.32,3.31-5.37V244.87q0-5.76-5.28-5.76Zm0,36.18v24.15h5.33q5.28,0,5.28-5.72V281q0-4-3.31-5.32a10.41,10.41,0,0,0-3.48-.39Z" transform="translate(-155.72 -225.79)"/><path d="M717,227.12h12.16v84.31H717Z" transform="translate(-155.72 -225.79)"/><path d="M774.47,281.52l3.95,29.91H766.13l-2.36-17.88H751.35l-2.41,17.88H736.7l3.95-29.78,8.6-54.53h16.67Zm-12.29,0-4.64-35.06-4.64,35.06Z" transform="translate(-155.72 -225.79)"/><path d="M832.91,311.43H816.23l-8.59-54.49-3.95-29.82H816l8.55,65,8.59-65h12.29L841.46,257Z" transform="translate(-155.72 -225.79)"/><path d="M852.71,227.12h31.54v12H864.87v24.15h16.68v12H864.87v24.15h19.38v12H852.71Z" transform="translate(-155.72 -225.79)"/><path d="M893.28,227.12h12.16L917,276v-48.9h11.26v84.31H916.05L905,264.07v47.36H893.28Z" transform="translate(-155.72 -225.79)"/><path d="M939.38,227.12h31.54v12H951.54v24.15h16.67v12H951.54v24.15h19.38v12H939.38Z" transform="translate(-155.72 -225.79)"/><path d="M1008,234.43l-16.5,65h17.23v12H977.8v-7.31l16.5-65H978.35v-12H1008Z" transform="translate(-155.72 -225.79)"/><path d="M1052.26,295.05q0,17.71-17.49,17.75t-17.44-17.75V227.12h12.16v67.93c0,3.82,1.76,5.72,5.28,5.72s5.33-1.9,5.33-5.72V227.12h12.16Z" transform="translate(-155.72 -225.79)"/><path d="M1063,227.12h31.54v12h-19.38v24.15h16.67v12h-16.67v24.15h19.38v12H1063Z" transform="translate(-155.72 -225.79)"/><path d="M1103.57,311.43V227.12h12.16v72.32h19.37v12Z" transform="translate(-155.72 -225.79)"/><path d="M1176.31,281.52l4,29.91H1168l-2.37-17.88h-12.42l-2.4,17.88h-12.25l4-29.78,8.59-54.53h16.67Zm-12.29,0-4.64-35.06-4.64,35.06Z" transform="translate(-155.72 -225.79)"/></svg>